<svg xmlns="http://www.w3.org/2000/svg" xmlns:xlink="http://www.w3.org/1999/xlink" width="500" height="500" viewBox="0 0 500 500"><defs><style>.a{clip-path:url(#e);}.b{fill:url(#a);}.c{fill:#fff;}.d{filter:url(#b);}</style><linearGradient id="a" x1="0.5" x2="0.5" y2="1" gradientUnits="objectBoundingBox"><stop offset="0" stop-color="#30c39e"/><stop offset="1" stop-color="#002d22"/></linearGradient><filter id="b" x="30" y="0" width="440" height="507" filterUnits="userSpaceOnUse"><feOffset dy="3" input="SourceAlpha"/><feGaussianBlur stdDeviation="3" result="c"/><feFlood flood-opacity="0.161"/><feComposite operator="in" in2="c"/><feComposite in="SourceGraphic"/></filter><clipPath id="e"><rect width="500" height="500"/></clipPath></defs><g id="d" class="a"><g transform="translate(-20.466 -37.479)"><g class="d" transform="matrix(1, 0, 0, 1, 20.47, 37.48)"><path class="b" d="M332.746,0A59,59,0,0,1,383.8,29.422l88.066,152a59,59,0,0,1,0,59.156l-88.066,152A59,59,0,0,1,332.746,422H156.254A59,59,0,0,1,105.2,392.578l-88.066-152a59,59,0,0,1,0-59.156l88.066-152A59,59,0,0,1,156.254,0Z" transform="translate(461 6) rotate(90)"/></g><g transform="translate(146.727 194.42)"><path class="c" d="M163.3,76.8a27.048,27.048,0,0,1-4.923-6.523c-.456-.815-.912-1.631-1.276-2.446l-1.368-2.609-1.459-2.691-1.459-2.772c-.456-.9-1-1.794-1.459-2.691s-.912-1.712-1.459-2.609-.912-1.631-1.368-2.365-.821-1.386-1.276-2.12c-11.215-17.368-32.459-11.008-46.591-.9C73.217,68.645,27.9,112.84,18.967,121.565a1.854,1.854,0,0,1-2.371.082,1.832,1.832,0,0,1-.365-.408c-4.741-7.746-22.52-38-13.859-44.766C15.411,66.281,81.149,10.425,96.557,2.434,105.857-2.377,115.7.151,123,6.674c10.029,8.969,11.579,21.608,19.512,31.556,3.282,4.077,8.023,7.42,13.585,8.073,8.753,1.06,16.959-4.4,23.159-9.3C201.5,19.558,210.618,12.3,218.368,8.387s12.309,31.964,12.035,38c0,.163-.091.408-.091.571a1.581,1.581,0,0,1-.365.652c-.182.245-.365.571-.547.815s-.456.652-.729.978-.638.815-.911,1.142-.73.9-1.094,1.3-.821.978-1.276,1.468-.912,1.06-1.459,1.549-1,1.06-1.55,1.631l-1.733,1.712c-.638.571-1.276,1.142-1.915,1.794a19.9,19.9,0,0,1-2.006,1.794c-.729.571-1.368,1.223-2.1,1.794s-1.459,1.223-2.188,1.794-1.55,1.223-2.279,1.794-1.55,1.223-2.371,1.794l-2.462,1.712a26,26,0,0,1-2.553,1.631c-.912.489-1.732,1.06-2.644,1.549s-1.732.979-2.644,1.468-1.824.9-2.735,1.3-1.823.815-2.735,1.142-1.823.734-2.735,1.06c-5.835,1.957-12.582,2.772-18.691,1.386A15.133,15.133,0,0,1,163.3,76.8Z" transform="translate(-0.029 0.064)"/><path class="c" d="M185.3,141.8a27.049,27.049,0,0,1-4.923-6.523c-.456-.815-.912-1.631-1.276-2.446l-1.368-2.609-1.459-2.691-1.459-2.772c-.456-.9-1-1.794-1.459-2.691s-.912-1.712-1.459-2.609-.912-1.631-1.368-2.365-.821-1.386-1.276-2.12c-11.215-17.45-32.458-11.008-46.591-.978-27.444,19.57-72.758,63.765-81.693,72.49a1.853,1.853,0,0,1-2.371.082,1.832,1.832,0,0,1-.365-.408c-4.741-7.746-22.52-38-13.859-44.766,13.038-10.111,78.776-65.966,94.184-73.957,9.3-4.811,19.147-2.283,26.441,4.24,10.029,8.969,11.579,21.608,19.512,31.556,3.282,4.077,8.023,7.42,13.585,8.073,8.753,1.06,16.959-4.4,23.159-9.3C223.5,84.558,232.618,77.3,240.368,73.387s12.309,31.964,12.035,38c0,.163-.091.408-.091.571a1.581,1.581,0,0,1-.365.652c-.182.245-.365.571-.547.815s-.456.652-.729.978-.638.815-.912,1.142-.729.9-1.094,1.3-.82.979-1.276,1.468-.912,1.06-1.459,1.549-1,1.142-1.55,1.631l-1.732,1.712A17.9,17.9,0,0,0,240.823,125a19.88,19.88,0,0,1-2.006,1.794c-.638.571-1.368,1.223-2.1,1.794s-1.459,1.223-2.188,1.794-1.55,1.223-2.279,1.794-1.55,1.223-2.37,1.794l-2.462,1.712a26.012,26.012,0,0,1-2.553,1.631c-.912.489-1.732,1.06-2.644,1.549s-1.732.978-2.644,1.468-1.824.9-2.735,1.3-1.824.815-2.735,1.142-1.824.734-2.735,1.06c-5.835,1.957-12.582,2.772-18.691,1.3A14.285,14.285,0,0,1,185.3,141.8Z" transform="translate(-4.09 0.134)"/></g></g></g></svg>