<svg xmlns="http://www.w3.org/2000/svg" xmlns:xlink="http://www.w3.org/1999/xlink" width="4954" height="930" viewBox="0 0 4954 930"><defs><clipPath id="b"><rect width="4954" height="930"/></clipPath></defs><g id="a" clip-path="url(#b)"><rect width="30" height="534" transform="translate(3291 210)"/><g transform="translate(122 141)"><path d="M475.546,756.332q9.04-23.425,9.044-26.063,0-3.157-29.213-83.714l-29.213-81.083-35.237-1.052H376.089q-20.409,0-20.409,1.052,0,2.111,44.963,128.734T446.562,822.4Q447.484,823.46,457,801.6T475.546,756.332Z" transform="translate(-252.463 -392.726)" fill="#064d4b"/><path d="M1403.3,137.841a95.828,95.828,0,1,0,9.611,72.776,95.9,95.9,0,0,0-9.611-72.776Zm2.309,66.37-35.91-9.621a164.7,164.7,0,0,0,4.917-41.86,95.245,95.245,0,0,0,22.641-8.03,86.941,86.941,0,0,1,8.352,59.51Zm-82.317-13.138,35.91,9.621a160.839,160.839,0,0,1-15.185,35.62,97.4,97.4,0,0,0-28.859-14.879Zm69.552-53.764a87.937,87.937,0,0,1-18.668,6.719,98.833,98.833,0,0,0-1.834-12.66,69.869,69.869,0,0,0-7.529-20.673,87.233,87.233,0,0,1,28.03,26.614Zm-46.181-33.451c8.138,4.248,14.178,14.407,17.284,29.2a96.338,96.338,0,0,1,1.729,12.488,87.7,87.7,0,0,1-29.857-1.212ZM1366.06,154.2a159.018,159.018,0,0,1-4.688,38.2l-35.859-9.611,8.068-30.119a96.621,96.621,0,0,0,32.478,1.527Zm-48.853,26.311-35.913-9.624a157.935,157.935,0,0,1,15.074-35.4,95.053,95.053,0,0,0,28.872,14.86l-8.081,30.16Zm21.187-78.883-10.842,40.476a87.947,87.947,0,0,1-26.509-13.891,103.852,103.852,0,0,1,7.778-9.943C1318.91,107.02,1329.229,101.239,1338.393,101.631Zm-19.133-3.154a69.675,69.675,0,0,0-16.85,14.136,118.646,118.646,0,0,0-7.924,10.045,89.341,89.341,0,0,1-12.8-15.147,86.8,86.8,0,0,1,37.574-9.034Zm-45.1,13.224a96.9,96.9,0,0,0,15.558,18.266,164.763,164.763,0,0,0-16.649,38.729l-35.954-9.634a87.222,87.222,0,0,1,37.032-47.351Zm-39.274,55.684,35.954,9.621a166.663,166.663,0,0,0-4.923,42.093,95.133,95.133,0,0,0-22.536,8.007,87.259,87.259,0,0,1-8.5-59.721Zm12.915,67.106a86.737,86.737,0,0,1,18.591-6.652,106.807,106.807,0,0,0,1.808,12.4,69.766,69.766,0,0,0,7.519,20.692,87.5,87.5,0,0,1-27.918-26.442Zm46.079,33.257c-8.138-4.244-14.178-14.407-17.29-29.2a101.585,101.585,0,0,1-1.735-12.258,86.8,86.8,0,0,1,29.8,1.253Zm-19.43-50.065a156.837,156.837,0,0,1,4.659-38.445l35.913,9.624-8.138,30.361a94.622,94.622,0,0,0-32.434-1.547Zm27.743,52.3,10.775-40.205a87.947,87.947,0,0,1,26.423,13.811,102.45,102.45,0,0,1-7.653,9.745C1321.681,264.591,1311.374,270.376,1302.2,269.98Zm19.133,3.154a69.484,69.484,0,0,0,16.834-14.194,98.782,98.782,0,0,0,7.8-9.825,88.046,88.046,0,0,1,12.755,15.045,86.461,86.461,0,0,1-37.373,8.97Zm44.918-13.1a95.612,95.612,0,0,0-15.517-18.2,165.856,165.856,0,0,0,16.8-38.9l35.939,9.63a87.3,87.3,0,0,1-37.217,47.473Z" transform="translate(-844.14 -69.542)" fill="#064d4b"/><path d="M625.711,214.72a308.108,308.108,0,0,0-18.578-36.866,105.186,105.186,0,0,1-19.771,33.362A274.073,274.073,0,0,1,616.743,335c0,152.045-123.7,275.744-275.743,275.744S65.257,487.045,65.257,335,188.955,59.257,341,59.257a274.607,274.607,0,0,1,87.247,14.149A105.742,105.742,0,0,1,458.417,49.1a309.075,309.075,0,0,0-237.7,570.614A309.161,309.161,0,0,0,625.711,214.72Z" transform="translate(-32 -26)" fill="#064d4b"/><path d="M1217.153,746.262a124.445,124.445,0,0,1-63.366-17.172l-81,210.968h0a70.937,70.937,0,0,0,91.645-40.817L1223.221,746.1Q1220.208,746.259,1217.153,746.262Z" transform="translate(-740.897 -504.885)" fill="#064d4b"/><path d="M822.388,738.669q0-3.16-14.375-43.171T779.5,616.782q-14.149-38.7-14.608-39.223-1.387-1.594-28.282,73.184Q716.2,708.665,686.993,783.951l-23.183,57.4,19.012,54.756q8.8,24.755,14.143,39.488t5.81,14.222l14.838-42.648q14.819-42.657,30.125-85.311t16.228-42.645q1.387,0,11.126,27.379,9.27,26.853,10.667,26.85,1.846,0,19.242-45.017T822.388,738.669Z" transform="translate(-462.335 -401.652)" fill="#11d8d1"/><path d="M1402.158,700.35l6.021-15.686a106.116,106.116,0,0,1-14.073.957,104.65,104.65,0,0,1-56.057-16.18l-5.459,14.21a119.442,119.442,0,0,0,61.516,16.981C1396.817,700.627,1399.5,700.528,1402.158,700.35Z" transform="translate(-917.851 -464.256)" fill="#11d8d1"/></g><text transform="translate(3481 414)" font-size="250" font-family="DMSans-Bold, DM Sans" font-weight="700"><tspan x="0" y="0">Digital</tspan><tspan x="0" y="296">Consultant</tspan></text><path d="M16.64-380.12h88.4l81.64,240.24-11.96-5.2L245.96-322.4,280.8-218.92,170.56,17.68Zm191.88,0H283.4l94.12,232.44L364-149.76l70.2-230.36h81.12L367.64,16.64ZM634.4,6.24q-41.6,0-70.46-15.6T520-52.52q-15.08-27.56-15.08-63.44,0-34.32,17.68-61.88a129.7,129.7,0,0,1,47.32-43.94q29.64-16.38,66.04-16.38,48.88,0,80.34,28.34t40.82,81.9L580.32-71.76,564.2-111.28l127.92-43.16-15.08,6.76a54.272,54.272,0,0,0-14.82-23.66q-10.66-10.14-31.98-10.14-16.12,0-28.34,7.54a48.868,48.868,0,0,0-18.72,21.32q-6.5,13.78-6.5,32.5,0,21.32,7.8,35.62A52.221,52.221,0,0,0,605.8-62.92a62.586,62.586,0,0,0,30.16,7.28A65.831,65.831,0,0,0,659.1-59.8a124.469,124.469,0,0,0,22.1-10.92l32.24,54.08A184.392,184.392,0,0,1,674.18,0,140.223,140.223,0,0,1,634.4,6.24Zm325,0q-28.6,0-48.1-9.62A116.91,116.91,0,0,1,877.24-28.6l5.72-15.6V0h-72.8V-410.28h72.28v198.64q13.52-11.44,35.88-19.24t50.96-7.8q29.64,0,54.08,14.04t39.26,40.82q14.82,26.78,14.82,65.26T1061.06-52q-16.38,28.08-43.42,43.16A117.652,117.652,0,0,1,959.4,6.24ZM943.28-55.12a56.805,56.805,0,0,0,29.9-8.32,62.262,62.262,0,0,0,22.1-22.88,64.842,64.842,0,0,0,8.32-32.76q0-18.2-8.32-32.24a61.387,61.387,0,0,0-22.1-22.1,58.19,58.19,0,0,0-29.9-8.06,76.628,76.628,0,0,0-26.26,4.42,59.5,59.5,0,0,0-20.8,12.48,54.877,54.877,0,0,0-13.26,19.5v55.64a68.76,68.76,0,0,0,14.82,18.98A58.612,58.612,0,0,0,917.8-59.02,78.614,78.614,0,0,0,943.28-55.12ZM1230.32,6.24q-31.72,0-57.46-12.74t-40.82-39.26q-15.08-26.52-15.08-67.6,0-38.48,15.6-66.56t41.08-43.42a103.162,103.162,0,0,1,54.08-15.34q33.8,0,51.22,11.18a127.841,127.841,0,0,1,28.86,24.7l-3.12,8.84,6.76-33.28h67.6V0h-72.8V-49.4l5.72,15.6q-1.04,0-6.24,5.98a118.522,118.522,0,0,1-15.34,14.04A100.07,100.07,0,0,1,1265.42.26Q1250.6,6.24,1230.32,6.24Zm20.8-59.28a66.259,66.259,0,0,0,23.4-3.9,52.3,52.3,0,0,0,18.2-11.44,68.992,68.992,0,0,0,13.52-18.98V-143a50.978,50.978,0,0,0-12.48-19.5A58.155,58.155,0,0,0,1274-174.98a70.19,70.19,0,0,0-25.48-4.42,54.542,54.542,0,0,0-28.86,8.06,58.688,58.688,0,0,0-21.06,22.1q-7.8,14.04-7.8,32.24a64.842,64.842,0,0,0,8.32,32.76,62.261,62.261,0,0,0,22.1,22.88A56.8,56.8,0,0,0,1251.12-53.04ZM1527.76,4.68A136.829,136.829,0,0,1,1475.5-5.2a114.825,114.825,0,0,1-40.82-27.56l30.16-40.04q16.64,15.08,30.94,21.58t25.74,6.5a63.313,63.313,0,0,0,15.86-1.82,25.294,25.294,0,0,0,11.18-5.72,13.264,13.264,0,0,0,4.16-10.14,16.57,16.57,0,0,0-7.02-14.04,59.616,59.616,0,0,0-17.94-8.58q-10.92-3.38-23.4-7.02-31.2-9.88-44.98-28.86t-13.78-41.34q0-17.16,9.1-34.58t29.12-29.12q20.02-11.7,51.74-11.7,28.6,0,48.36,5.72a118.629,118.629,0,0,1,37.44,18.72l-27.56,42.64a103.825,103.825,0,0,0-22.1-13.26q-12.22-5.46-22.62-5.98-9.36-.52-15.86,2.08a26.008,26.008,0,0,0-10.14,6.76,13.241,13.241,0,0,0-3.64,8.84,16.934,16.934,0,0,0,7.54,15.6q8.06,5.72,20.54,8.84t24.44,7.28a95.735,95.735,0,0,1,28.6,14.04,62.683,62.683,0,0,1,18.46,21.06q6.5,12.22,6.5,29.38a77.271,77.271,0,0,1-10.66,39.26q-10.66,18.46-32.24,29.9T1527.76,4.68Zm179.92-331.76h72.8v98.8h55.12v56.68h-55.12V0h-72.8V-171.6h-35.36v-56.68h35.36Zm249.08,99.84,6.76,62.4-1.56-9.36A103.472,103.472,0,0,1,1989-208.78a155.522,155.522,0,0,1,34.06-22.1q16.9-7.8,25.74-7.8l-3.64,72.8q-25.48-3.12-43.68,8.32a78.217,78.217,0,0,0-28.08,30.16,81.5,81.5,0,0,0-9.88,38.48V0h-72.28V-227.24ZM2122.64,109.2l151.32-336.44h65.52L2192.84,109.2ZM2183.48,1.04,2072.2-227.24h81.64l85.8,191.88Z" transform="translate(770 623)" fill="#064d4b"/></g></svg>